<?xml version="1.0" encoding="UTF-8" standalone="no"?>
<!DOCTYPE svg PUBLIC "-//W3C//DTD SVG 1.1//EN" "http://www.w3.org/Graphics/SVG/1.1/DTD/svg11.dtd">
<svg width="100%" height="100%" viewBox="0 0 727 173" version="1.1" xmlns="http://www.w3.org/2000/svg" xmlns:xlink="http://www.w3.org/1999/xlink" xml:space="preserve" xmlns:serif="http://www.serif.com/" style="fill-rule:evenodd;clip-rule:evenodd;stroke-linejoin:round;stroke-miterlimit:2;">
    <g transform="matrix(1,0,0,1,-15.433365,-6.263517)">
        <g transform="matrix(1,0,0,1,4.190607,-13.647206)">
            <g transform="matrix(0.978103,0,0,-0.978103,-46.76249,2740.097429)">
                <path d="M229.794,2632.349C225.825,2633.865 222.565,2634.527 218.882,2634.527C215.126,2634.527 212.362,2633.566 211.725,2631.906C210.591,2629.247 220.511,2629.469 223.558,2629.026C230.714,2627.954 233.124,2624.818 231.778,2621.531C229.864,2616.507 221.433,2613.74 211.087,2613.74C204.001,2613.74 198.19,2614.81 193.019,2617.763L201.167,2621.714C204.78,2619.906 208.819,2619.019 213.213,2619.019C218.598,2619.019 221.22,2620.238 221.716,2621.531C222.85,2624.335 215.692,2624.153 211.866,2624.448C204.497,2625.148 200.033,2627.511 201.733,2631.98C203.648,2636.595 211.087,2639.808 221.29,2639.808C227.314,2639.808 232.061,2638.738 237.092,2636.705L229.794,2632.349Z" style="fill:white;fill-rule:nonzero;"/>
            </g>
            <g transform="matrix(0.978103,0,0,-0.978103,-46.76249,2740.097429)">
                <path d="M265.485,2622.456C263.227,2621.305 259.993,2620.719 256.349,2620.719L249.727,2620.719L247.006,2613.924L239.718,2613.924L247.161,2632.539L260.251,2632.539C267.231,2632.539 271.542,2630.267 270.053,2626.548C269.49,2625.076 267.95,2623.714 265.485,2622.456M259.069,2628.848L252.962,2628.848L251.216,2624.407L257.53,2624.407C259.993,2624.407 262.2,2625.265 262.764,2626.627C263.381,2628.127 261.944,2628.848 259.069,2628.848" style="fill:white;fill-rule:nonzero;"/>
            </g>
            <g transform="matrix(0.978103,0,0,-0.978103,-46.76249,2740.097429)">
                <path d="M301.932,2628.847L285.814,2628.847L284.326,2625.076L298.081,2625.076L296.644,2621.519L282.888,2621.519L281.349,2617.615L297.465,2617.615L296.029,2613.923L272.572,2613.923L280.013,2632.538L303.42,2632.538L301.932,2628.847Z" style="fill:white;fill-rule:nonzero;"/>
            </g>
            <g transform="matrix(0.978103,0,0,-0.978103,-46.76249,2740.097429)">
                <path d="M326.571,2626.334C326.571,2627.938 324.673,2628.848 322.053,2628.848C320.051,2628.848 318.461,2628.367 317.434,2627.805C316.099,2627.109 315.637,2626.789 314.149,2623.204C313.481,2621.414 313.175,2620.448 313.175,2619.834C313.175,2619.22 313.38,2618.979 313.79,2618.631C314.407,2618.096 315.587,2617.589 317.589,2617.589C320.207,2617.589 322.721,2618.444 324.107,2620.129L331.601,2620.129C328.726,2616.303 322.876,2613.764 316.099,2613.764C311.326,2613.764 306.913,2615.154 305.834,2617.589C305.167,2619.192 306.193,2621.466 306.913,2623.204C307.579,2624.944 308.401,2627.297 310.3,2628.848C313.276,2631.256 318.871,2632.673 323.593,2632.673C330.421,2632.673 334.219,2630.131 334.065,2626.334L326.571,2626.334Z" style="fill:white;fill-rule:nonzero;"/>
            </g>
            <g transform="matrix(0.978103,0,0,-0.978103,-46.76249,2740.097429)">
                <path d="M343.308,2613.923L336.019,2613.923L343.461,2632.538L350.699,2632.538L343.308,2613.923Z" style="fill:white;fill-rule:nonzero;"/>
            </g>
            <g transform="matrix(0.978103,0,0,-0.978103,-46.76249,2740.097429)">
                <path d="M373.746,2613.923L372.77,2617.802L361.786,2617.802L357.68,2613.923L349.981,2613.923L370.256,2632.538L376.005,2632.538L381.497,2613.923L373.746,2613.923ZM370.769,2626.547L365.432,2621.359L371.95,2621.359L370.769,2626.547Z" style="fill:white;fill-rule:nonzero;"/>
            </g>
            <g transform="matrix(0.978103,0,0,-0.978103,-46.76249,2740.097429)">
                <path d="M411.577,2613.923L388.121,2613.923L395.562,2632.538L402.8,2632.538L396.897,2617.614L413.015,2617.614L411.577,2613.923Z" style="fill:white;fill-rule:nonzero;"/>
            </g>
            <g transform="matrix(0.978103,0,0,-0.978103,-46.76249,2740.097429)">
                <path d="M427.133,2613.923L419.844,2613.923L427.287,2632.538L434.524,2632.538L427.133,2613.923Z" style="fill:white;fill-rule:nonzero;"/>
            </g>
            <g transform="matrix(0.978103,0,0,-0.978103,-46.76249,2740.097429)">
                <path d="M465.272,2629.25L446.538,2617.615L460.654,2617.615L459.166,2613.924L435.757,2613.924L437.091,2617.348L455.829,2628.981L442.329,2628.981L443.765,2632.539L466.555,2632.539L465.272,2629.25Z" style="fill:white;fill-rule:nonzero;"/>
            </g>
            <g transform="matrix(0.978103,0,0,-0.978103,-46.76249,2740.097429)">
                <path d="M497.099,2628.847L480.981,2628.847L479.494,2625.076L493.249,2625.076L491.812,2621.519L478.055,2621.519L476.516,2617.615L492.633,2617.615L491.197,2613.923L467.739,2613.923L475.182,2632.538L498.588,2632.538L497.099,2628.847Z" style="fill:white;fill-rule:nonzero;"/>
            </g>
            <g transform="matrix(0.978103,0,0,-0.978103,-46.76249,2740.097429)">
                <path d="M542.82,2634.344C544.025,2631.094 541.12,2626.292 540.269,2624.004C539.419,2622.232 538.853,2620.718 537.222,2619.24C533.255,2615.548 526.594,2613.923 520.004,2613.923L500.731,2613.923L511.006,2639.623L528.507,2639.623C535.309,2639.623 541.333,2637.702 542.82,2634.344M531.908,2633.015C531.058,2633.788 529.216,2634.527 526.452,2634.527L519.012,2634.527L512.847,2619.019L520.5,2619.019C523.263,2619.019 525.461,2619.683 526.948,2620.458C528.295,2621.234 528.932,2621.568 530.136,2623.782C530.491,2624.522 530.916,2625.519 531.413,2626.736C532.334,2629.21 532.758,2630.576 532.758,2631.353C532.758,2632.202 532.475,2632.534 531.908,2633.015" style="fill:white;fill-rule:nonzero;"/>
            </g>
            <g transform="matrix(0.978103,0,0,-0.978103,-46.76249,2740.097429)">
                <path d="M555.287,2613.923L547.998,2613.923L555.44,2632.538L562.679,2632.538L555.287,2613.923Z" style="fill:white;fill-rule:nonzero;"/>
            </g>
            <g transform="matrix(0.978103,0,0,-0.978103,-46.76249,2740.097429)">
                <path d="M579.207,2613.923L573.664,2613.923L569.404,2632.538L577.103,2632.538L579.207,2620.876L590.602,2632.538L598.303,2632.538L579.207,2613.923Z" style="fill:white;fill-rule:nonzero;"/>
            </g>
            <g transform="matrix(0.978103,0,0,-0.978103,-46.76249,2740.097429)">
                <path d="M604.874,2613.923L597.586,2613.923L605.028,2632.538L612.266,2632.538L604.874,2613.923Z" style="fill:white;fill-rule:nonzero;"/>
            </g>
            <g transform="matrix(0.978103,0,0,-0.978103,-46.76249,2740.097429)">
                <path d="M642.705,2613.923L636.237,2613.923L627.151,2624.944L622.738,2613.923L615.449,2613.923L622.892,2632.538L629.359,2632.538L638.445,2621.519L642.807,2632.538L650.096,2632.538L642.705,2613.923Z" style="fill:white;fill-rule:nonzero;"/>
            </g>
            <g transform="matrix(0.978103,0,0,-0.978103,-46.76249,2740.097429)">
                <path d="M685.148,2631.057C685.36,2633.384 682.526,2634.527 678.912,2634.527C676.149,2634.527 673.953,2633.865 672.535,2633.087C670.693,2632.128 670.055,2631.685 668.001,2626.736C667.08,2624.263 666.654,2622.933 666.654,2622.083C666.654,2621.234 666.938,2620.902 667.503,2620.422C668.355,2619.683 669.985,2618.982 672.748,2618.982C677.212,2618.982 681.18,2621.013 682.314,2623.303L682.385,2623.451L673.031,2623.451L675.015,2628.361L694.359,2628.361L692.234,2623.081C691.383,2620.865 689.187,2618.945 686.282,2617.322C682.244,2615.103 676.859,2613.703 670.693,2613.703C664.104,2613.703 658.009,2615.622 656.522,2618.982C655.6,2621.199 657.018,2624.335 658.009,2626.736C658.93,2629.136 660.064,2632.386 662.686,2634.527C666.796,2637.851 674.518,2639.808 681.038,2639.808C690.533,2639.808 695.848,2636.226 695.494,2631.057L685.148,2631.057Z" style="fill:white;fill-rule:nonzero;"/>
            </g>
            <g transform="matrix(0.978103,0,0,-0.978103,-46.76249,2740.097429)">
                <path d="M729.749,2628.847L713.632,2628.847L712.143,2625.076L725.899,2625.076L724.462,2621.519L710.705,2621.519L709.165,2617.615L725.283,2617.615L723.846,2613.923L700.389,2613.923L707.83,2632.538L731.236,2632.538L729.749,2628.847Z" style="fill:white;fill-rule:nonzero;"/>
            </g>
            <g transform="matrix(0.978103,0,0,-0.978103,-46.76249,2740.097429)">
                <path d="M751.977,2613.923L751,2617.802L740.017,2617.802L735.911,2613.923L728.211,2613.923L748.487,2632.538L754.235,2632.538L759.727,2613.923L751.977,2613.923ZM748.999,2626.547L743.662,2621.359L750.18,2621.359L748.999,2626.547Z" style="fill:white;fill-rule:nonzero;"/>
            </g>
            <g transform="matrix(0.978103,0,0,-0.978103,-46.76249,2740.097429)">
                <path d="M788.833,2621.949L793.606,2613.924L785.291,2613.924L781.185,2621.359L776.616,2621.359L773.639,2613.924L766.351,2613.924L773.793,2632.539L787.805,2632.539C791.707,2632.539 794.632,2631.87 796.224,2630.132C796.993,2629.275 797.303,2628.232 796.84,2627.056C795.968,2624.81 793.4,2622.884 788.833,2621.949M789.705,2628.206C789.243,2628.767 788.011,2628.981 786.368,2628.981L779.645,2628.981L778.002,2624.917L784.47,2624.917C787.087,2624.917 789.243,2625.666 789.808,2627.056C790.014,2627.537 789.961,2627.912 789.705,2628.206" style="fill:white;fill-rule:nonzero;"/>
            </g>
            <g transform="matrix(0.978103,0,0,-0.978103,-46.76249,2740.097429)">
                <path d="M356.415,2732.324L283.415,2732.324L308.529,2756.911L381.528,2756.911L356.415,2732.324Z" style="fill:white;"/>
            </g>
            <g transform="matrix(0.978103,0,0,-0.978103,-46.76249,2740.097429)">
                <path d="M398.986,2768.915L435.076,2768.915L422.66,2781.071L386.569,2781.071L398.986,2768.915Z" style="fill:white;"/>
            </g>
            <g transform="matrix(0.978103,0,0,-0.978103,-46.76249,2740.097429)">
                <path d="M335.591,2657.929L298.628,2657.929L398.309,2756.911L435.272,2756.911L335.591,2657.929Z" style="fill:white;"/>
            </g>
            <g transform="matrix(0.978103,0,0,-0.978103,-46.76249,2740.097429)">
                <path d="M626.831,2756.911L541.861,2756.911L516.748,2732.324L541.634,2732.324L466.714,2657.929L503.677,2657.929L578.597,2732.324L601.717,2732.324L626.831,2756.911Z" style="fill:white;"/>
            </g>
            <g transform="matrix(0.978103,0,0,-0.978103,-46.76249,2740.097429)">
                <path d="M319.14,2695.135L246.14,2695.135L271.255,2719.721L344.253,2719.721L319.14,2695.135Z" style="fill:white;"/>
            </g>
            <g transform="matrix(0.978103,0,0,-0.978103,-46.76249,2740.097429)">
                <path d="M281.864,2657.945L208.865,2657.945L233.979,2682.531L306.977,2682.531L281.864,2657.945Z" style="fill:white;"/>
            </g>
            <g transform="matrix(0.978103,0,0,-0.978103,-46.76249,2740.097429)">
                <path d="M691.563,2732.324L618.567,2732.324L643.679,2756.911L716.678,2756.911L691.563,2732.324Z" style="fill:white;"/>
            </g>
            <g transform="matrix(0.978103,0,0,-0.978103,-46.76249,2740.097429)">
                <path d="M801.639,2719.731L764.374,2756.911L759.338,2756.898L759.328,2756.911L729.07,2756.911L703.955,2732.324L754.164,2732.324L766.797,2719.721L606.405,2719.721L581.291,2695.135L729.855,2695.135L767.107,2657.935L801.982,2657.945L764.706,2695.135L776.488,2695.135L801.639,2719.731Z" style="fill:white;"/>
            </g>
            <g transform="matrix(0.978103,0,0,-0.978103,-46.76249,2740.097429)">
                <path d="M617.014,2657.945L544.016,2657.945L569.129,2682.531L642.127,2682.531L617.014,2657.945Z" style="fill:white;"/>
            </g>
            <g transform="matrix(0.978103,0,0,-0.978103,-46.76249,2740.097429)">
                <path d="M378.648,2683.226L415.07,2683.226L427.99,2695.874L391.384,2695.874L452.853,2756.912L525.727,2756.912L501.343,2732.698L465.252,2732.698L452.333,2720.05L488.606,2720.05L426.046,2657.93L353.172,2657.93L378.648,2683.226Z" style="fill:white;fill-rule:nonzero;"/>
            </g>
            <g transform="matrix(0.978103,0,0,-0.978103,-46.76249,2740.097429)">
                <path d="M290.26,2756.947L265.146,2781.083L133.083,2781.083L158.197,2756.947L158.295,2756.947L59.304,2658.183L77.566,2639.974L182.309,2744.475L193.523,2744.475L89.431,2640.621L107.693,2622.411L230.037,2744.475L241.251,2744.475L119.557,2623.06L137.819,2604.851L290.236,2756.916L290.26,2756.947Z" style="fill:white;"/>
            </g>
        </g>
    </g>
</svg>
