<?xml version="1.0" encoding="UTF-8" ?>
<!-- Sure Cuts A Lot -->
<!DOCTYPE svg PUBLIC "-//W3C//DTD SVG 1.1//EN" "http://www.w3.org/Graphics/SVG/1.1/DTD/svg11.dtd">
<svg version="1.1" xmlns="http://www.w3.org/2000/svg" xmlns:xlink="http://www.w3.org/1999/xlink" xmlns:scal="http://www.craftedge.com/namespaces/surecutsalot" scal:dpi="72" x="0px" y="0px" width="1701px" height="2833px" viewBox="0 0 1700.78 2833.2" xml:space="preserve">
<g id="&lt;group&gt;">
<path style="fill-rule:evenodd;fill:#231F20;stroke:none;" d="M 281.896 216.484 C 277.928 214.968 274.668 214.306 270.984 214.306 C 267.229 214.306 264.465 215.267 263.827 216.927 C 262.693 219.586 272.614 219.364 275.661 219.807 C 282.817 220.879 285.227 224.015 283.88 227.302 C 281.967 232.326 273.535 235.093 263.189 235.093 C 256.104 235.093 250.293 234.023 245.121 231.07 L 253.27 227.119 C 256.883 228.927 260.922 229.814 265.315 229.814 C 270.7 229.814 273.322 228.595 273.818 227.302 C 274.952 224.498 267.795 224.68 263.969 224.385 C 256.6 223.685 252.136 221.322 253.836 216.853 C 255.75 212.238 263.189 209.025 273.393 209.025 C 279.416 209.025 284.163 210.095 289.194 212.128 L 281.896 216.484 z"/>
<path style="fill-rule:evenodd;fill:#231F20;stroke:none;" d="M 317.588 226.378 C 315.329 227.529 312.096 228.115 308.452 228.115 L 301.83 228.115 L 299.109 234.91 L 291.821 234.91 L 299.263 216.295 L 312.353 216.295 C 319.334 216.295 323.645 218.567 322.156 222.286 C 321.592 223.758 320.052 225.12 317.588 226.378 zM 311.172 219.986 L 305.064 219.986 L 303.319 224.427 L 309.632 224.427 C 312.096 224.427 314.303 223.569 314.867 222.207 C 315.484 220.707 314.046 219.986 311.172 219.986 z"/>
<path style="fill-rule:evenodd;fill:#231F20;stroke:none;" d="M 354.034 219.986 L 337.916 219.986 L 336.428 223.757 L 350.184 223.757 L 348.746 227.314 L 334.991 227.314 L 333.451 231.218 L 349.567 231.218 L 348.131 234.91 L 324.674 234.91 L 332.116 216.295 L 355.522 216.295 L 354.034 219.986 z"/>
<path style="fill-rule:evenodd;fill:#231F20;stroke:none;" d="M 378.674 222.5 C 378.674 220.896 376.775 219.986 374.156 219.986 C 372.154 219.986 370.563 220.467 369.537 221.029 C 368.202 221.725 367.74 222.045 366.252 225.63 C 365.584 227.42 365.277 228.385 365.277 229 C 365.277 229.614 365.482 229.855 365.892 230.203 C 366.509 230.738 367.689 231.245 369.691 231.245 C 372.309 231.245 374.824 230.39 376.21 228.705 L 383.704 228.705 C 380.829 232.53 374.978 235.07 368.202 235.07 C 363.428 235.07 359.015 233.68 357.936 231.245 C 357.269 229.642 358.296 227.367 359.015 225.63 C 359.682 223.89 360.503 221.537 362.402 219.986 C 365.379 217.578 370.973 216.161 375.696 216.161 C 382.523 216.161 386.321 218.702 386.168 222.5 L 378.674 222.5 z"/>
<path style="fill-rule:evenodd;fill:#231F20;stroke:none;" d="M 395.409 234.91 L 388.12 234.91 L 395.563 216.295 L 402.8 216.295 L 395.409 234.91 z"/>
<path style="fill-rule:evenodd;fill:#231F20;stroke:none;" d="M 425.848 234.91 L 424.873 231.031 L 413.889 231.031 L 409.782 234.91 L 402.083 234.91 L 422.358 216.295 L 428.107 216.295 L 433.599 234.91 L 425.848 234.91 zM 422.872 222.286 L 417.534 227.474 L 424.053 227.474 L 422.872 222.286 z"/>
<path style="fill-rule:evenodd;fill:#231F20;stroke:none;" d="M 463.679 234.91 L 440.222 234.91 L 447.665 216.295 L 454.902 216.295 L 448.999 231.219 L 465.117 231.219 L 463.679 234.91 z"/>
<path style="fill-rule:evenodd;fill:#231F20;stroke:none;" d="M 479.235 234.91 L 471.946 234.91 L 479.389 216.295 L 486.626 216.295 L 479.235 234.91 z"/>
<path style="fill-rule:evenodd;fill:#231F20;stroke:none;" d="M 517.375 219.584 L 498.641 231.219 L 512.756 231.219 L 511.268 234.91 L 487.859 234.91 L 489.194 231.486 L 507.931 219.853 L 494.431 219.853 L 495.868 216.295 L 518.658 216.295 L 517.375 219.584 z"/>
<path style="fill-rule:evenodd;fill:#231F20;stroke:none;" d="M 549.201 219.986 L 533.083 219.986 L 531.596 223.757 L 545.351 223.757 L 543.914 227.314 L 530.157 227.314 L 528.618 231.218 L 544.735 231.218 L 543.299 234.91 L 519.841 234.91 L 527.284 216.295 L 550.69 216.295 L 549.201 219.986 z"/>
<path style="fill-rule:evenodd;fill:#231F20;stroke:none;" d="M 594.923 214.489 C 596.128 217.739 593.223 222.541 592.372 224.829 C 591.522 226.601 590.956 228.115 589.325 229.593 C 585.358 233.285 578.697 234.91 572.107 234.91 L 552.834 234.91 L 563.109 209.21 L 580.61 209.21 C 587.412 209.21 593.436 211.131 594.923 214.489 zM 584.011 215.818 C 583.161 215.045 581.319 214.306 578.555 214.306 L 571.115 214.306 L 564.95 229.814 L 572.603 229.814 C 575.366 229.814 577.564 229.15 579.051 228.375 C 580.398 227.599 581.035 227.265 582.239 225.051 C 582.594 224.311 583.019 223.314 583.516 222.097 C 584.437 219.623 584.861 218.257 584.861 217.48 C 584.861 216.631 584.578 216.299 584.011 215.818 z"/>
<path style="fill-rule:evenodd;fill:#231F20;stroke:none;" d="M 607.389 234.91 L 600.1 234.91 L 607.542 216.295 L 614.781 216.295 L 607.389 234.91 z"/>
<path style="fill-rule:evenodd;fill:#231F20;stroke:none;" d="M 631.309 234.91 L 625.766 234.91 L 621.506 216.295 L 629.205 216.295 L 631.309 227.957 L 642.704 216.295 L 650.405 216.295 L 631.309 234.91 z"/>
<path style="fill-rule:evenodd;fill:#231F20;stroke:none;" d="M 656.976 234.91 L 649.688 234.91 L 657.13 216.295 L 664.368 216.295 L 656.976 234.91 z"/>
<path style="fill-rule:evenodd;fill:#231F20;stroke:none;" d="M 694.807 234.91 L 688.339 234.91 L 679.253 223.889 L 674.84 234.91 L 667.551 234.91 L 674.994 216.295 L 681.461 216.295 L 690.547 227.314 L 694.909 216.295 L 702.198 216.295 L 694.807 234.91 z"/>
<path style="fill-rule:evenodd;fill:#231F20;stroke:none;" d="M 737.251 217.776 C 737.463 215.449 734.629 214.306 731.015 214.306 C 728.252 214.306 726.056 214.968 724.638 215.746 C 722.796 216.705 722.158 217.148 720.104 222.097 C 719.183 224.57 718.757 225.9 718.757 226.75 C 718.757 227.599 719.041 227.931 719.606 228.411 C 720.458 229.15 722.088 229.851 724.851 229.851 C 729.315 229.851 733.283 227.82 734.417 225.53 L 734.488 225.382 L 725.134 225.382 L 727.118 220.472 L 746.462 220.472 L 744.337 225.752 C 743.486 227.968 741.29 229.888 738.385 231.511 C 734.347 233.73 728.962 235.13 722.796 235.13 C 716.207 235.13 710.112 233.211 708.625 229.851 C 707.703 227.634 709.121 224.498 710.112 222.097 C 711.033 219.697 712.167 216.447 714.789 214.306 C 718.899 210.982 726.621 209.025 733.141 209.025 C 742.636 209.025 747.951 212.607 747.597 217.776 L 737.251 217.776 z"/>
<path style="fill-rule:evenodd;fill:#231F20;stroke:none;" d="M 781.851 219.986 L 765.734 219.986 L 764.245 223.757 L 778.001 223.757 L 776.564 227.314 L 762.807 227.314 L 761.267 231.218 L 777.385 231.218 L 775.948 234.91 L 752.491 234.91 L 759.932 216.295 L 783.338 216.295 L 781.851 219.986 z"/>
<path style="fill-rule:evenodd;fill:#231F20;stroke:none;" d="M 804.079 234.91 L 803.102 231.031 L 792.119 231.031 L 788.013 234.91 L 780.313 234.91 L 800.589 216.295 L 806.337 216.295 L 811.829 234.91 L 804.079 234.91 zM 801.101 222.286 L 795.764 227.474 L 802.282 227.474 L 801.101 222.286 z"/>
<path style="fill-rule:evenodd;fill:#231F20;stroke:none;" d="M 840.935 226.885 L 845.708 234.91 L 837.393 234.91 L 833.287 227.475 L 828.718 227.475 L 825.741 234.91 L 818.453 234.91 L 825.895 216.295 L 839.907 216.295 C 843.809 216.295 846.734 216.964 848.326 218.702 C 849.095 219.559 849.405 220.602 848.942 221.778 C 848.07 224.024 845.502 225.95 840.935 226.885 zM 841.807 220.628 C 841.345 220.067 840.113 219.853 838.47 219.853 L 831.747 219.853 L 830.104 223.917 L 836.572 223.917 C 839.189 223.917 841.345 223.168 841.91 221.778 C 842.116 221.297 842.063 220.922 841.807 220.628 z"/>
<path style="fill-rule:evenodd;fill:#231F20;stroke:none;" d="M 408.517 116.509 L 335.518 116.509 L 360.632 91.9223 L 433.631 91.9223 L 408.517 116.509 z"/>
<path style="fill-rule:evenodd;fill:#231F20;stroke:none;" d="M 451.088 79.919 L 487.178 79.919 L 474.762 67.763 L 438.671 67.763 L 451.088 79.919 z"/>
<path style="fill-rule:evenodd;fill:#231F20;stroke:none;" d="M 387.693 190.904 L 350.73 190.904 L 450.41 91.9223 L 487.373 91.9223 L 387.693 190.904 z"/>
<path style="fill-rule:evenodd;fill:#231F20;stroke:none;" d="M 678.933 91.9224 L 655.458 91.9224 L 618.495 91.9224 L 593.963 91.9224 L 568.85 116.509 L 593.736 116.509 L 518.816 190.904 L 555.779 190.904 L 630.699 116.509 L 653.819 116.509 L 678.933 91.9224 z"/>
<path style="fill-rule:evenodd;fill:#231F20;stroke:none;" d="M 371.241 153.699 L 298.242 153.699 L 323.356 129.113 L 396.355 129.113 L 371.241 153.699 z"/>
<path style="fill-rule:evenodd;fill:#231F20;stroke:none;" d="M 333.966 190.889 L 260.967 190.889 L 286.081 166.303 L 359.08 166.303 L 333.966 190.889 z"/>
<path style="fill-rule:evenodd;fill:#231F20;stroke:none;" d="M 743.666 116.509 L 670.669 116.509 L 695.782 91.9223 L 768.78 91.9223 L 743.666 116.509 z"/>
<path style="fill-rule:evenodd;fill:#231F20;stroke:none;" d="M 853.741 129.103 L 816.476 91.9226 L 811.44 91.9356 L 811.43 91.9226 L 781.172 91.9226 L 756.057 116.51 L 806.266 116.51 L 818.899 129.113 L 658.507 129.113 L 633.393 153.699 L 781.957 153.699 L 819.209 190.899 L 854.084 190.889 L 816.808 153.699 L 828.59 153.699 L 853.741 129.103 z"/>
<path style="fill-rule:evenodd;fill:#231F20;stroke:none;" d="M 669.116 190.889 L 596.118 190.889 L 621.231 166.303 L 694.229 166.303 L 669.116 190.889 z"/>
<path style="fill-rule:evenodd;fill:#231F20;stroke:none;" d="M 430.75 165.608 L 467.173 165.608 L 480.092 152.96 L 443.487 152.96 L 504.956 91.922 L 577.83 91.922 L 553.446 116.136 L 517.355 116.136 L 504.435 128.784 L 540.708 128.784 L 478.149 190.904 L 405.275 190.904 L 430.75 165.608 z"/>
<path style="fill-rule:evenodd;fill:#231F20;stroke:none;" d="M 342.362 91.8863 L 317.248 67.7503 L 185.186 67.7503 L 210.299 91.8863 L 210.397 91.8863 L 111.406 190.65 L 129.668 208.859 L 234.411 104.358 L 245.625 104.358 L 141.533 208.212 L 159.794 226.422 L 282.139 104.358 L 293.354 104.358 L 171.659 225.773 L 189.921 243.982 L 342.337 91.9173 L 342.362 91.8863 z"/>
</g>

</svg>